<svg width="83" height="83" viewBox="0 0 83 83" fill="none" xmlns="http://www.w3.org/2000/svg">
<g clip-path="url(#clip0_263_2073)">
<path d="M41.5 9.90863L41.174 9.62831C36.2244 5.37212 28.9939 4.70316 22.2888 5.37363C14.5032 6.16046 6.63041 8.83321 1.72695 11.0635L1.72694 11.0635C1.36115 11.2298 1.05097 11.4979 0.833413 11.8358C0.615872 12.1736 0.50013 12.5669 0.5 12.9687C0.5 12.9687 0.5 12.9687 0.5 12.9688V70.031C0.5 70.031 0.5 70.0311 0.5 70.0311C0.50012 70.3814 0.588115 70.7261 0.755928 71.0335C0.923763 71.341 1.16607 71.6015 1.46066 71.7911C1.75524 71.9807 2.09269 72.0933 2.44209 72.1187C2.79149 72.144 3.14167 72.0813 3.46056 71.9363L3.46105 71.9361C8.07076 69.8455 15.4957 67.3307 22.7073 66.6027L22.7074 66.6027C30.0554 65.8622 36.4156 67.0297 39.8669 71.3367C40.0631 71.5813 40.3117 71.7786 40.5943 71.9143C40.877 72.0499 41.1865 72.1203 41.5 72.1203C41.8135 72.1203 42.123 72.0499 42.4057 71.9143C42.6883 71.7786 42.9369 71.5813 43.1331 71.3367C46.5844 67.0298 52.9446 65.8622 60.2874 66.6027L60.2373 67.1002L60.2874 66.6027C67.5041 67.3307 74.9344 69.8455 79.5391 71.9362L79.5394 71.9363C79.8583 72.0813 80.2085 72.144 80.5579 72.1187C80.9073 72.0933 81.2448 71.9807 81.5393 71.7911C81.8339 71.6015 82.0762 71.341 82.2441 71.0335C82.4119 70.7261 82.4999 70.3814 82.5 70.0311L41.5 9.90863ZM41.5 9.90863L41.826 9.62831M41.5 9.90863L41.826 9.62831M41.826 9.62831C46.7758 5.372 54.0065 4.69802 60.7109 5.3736L41.826 9.62831ZM81.4788 10.6112L81.273 11.0635C76.3696 8.8332 68.4967 6.16043 60.7111 5.37362L81.4788 10.6112ZM81.4788 10.6112L81.2731 11.0635C81.6388 11.2298 81.949 11.4979 82.1666 11.8358C82.3841 12.1736 82.4999 12.5668 82.5 12.9686C82.5 12.9687 82.5 12.9687 82.5 12.9688M81.4788 10.6112L82.5 12.9688M82.5 12.9688V70.031V12.9688Z" fill="#E3FFED" stroke="#BCECD9"/>
<path d="M37.7501 56.6882H35.6073V58.8311H37.7501V56.6882Z" fill="#1A6144"/>
<path d="M39.8929 53.4739H37.7501V55.6167H39.8929V53.4739Z" fill="#1A6144"/>
<path d="M43.1072 56.6882H40.9644V58.8311H43.1072V56.6882Z" fill="#1A6144"/>
<path d="M45.2501 53.4739H43.1072V55.6167H45.2501V53.4739Z" fill="#1A6144"/>
<path d="M47.393 56.6882H45.2501V58.8311H47.393V56.6882Z" fill="#1A6144"/>
<path d="M53.2366 59.9023C52.7255 54.2572 48.2168 49.7485 42.5715 49.2373V41.4101C43.7499 42.4988 45.4485 43.5127 47.6891 43.5127C50.3797 43.5127 53.2386 42.018 56.1864 39.0703C56.6048 38.6519 56.6048 37.9735 56.1864 37.555C53.2386 34.6073 50.3798 33.1126 47.6891 33.1126C45.4488 33.1126 43.75 34.1267 42.5715 35.2155V19.7318C44.0668 21.2971 46.3969 22.9376 49.5967 22.938C49.5971 22.938 49.5974 22.938 49.5979 22.938C53.0253 22.938 56.6841 21.0156 60.4723 17.224C60.8904 16.8055 60.8903 16.1274 60.472 15.709C56.6838 11.9207 53.0247 10 49.5969 10C45.4891 10 42.8149 12.7002 41.5001 14.4763C40.1853 12.7002 37.5111 10 33.4032 10C29.9754 10 26.3164 11.9207 22.5281 15.709C22.1098 16.1273 22.1097 16.8054 22.5278 17.224C26.316 21.0156 29.9752 22.938 33.4032 22.938C36.6031 22.938 38.9333 21.2975 40.4286 19.7321V29.8607C39.2502 28.7732 37.5516 27.7602 35.311 27.7602C32.6206 27.7602 29.7619 29.2531 26.8141 32.1974C26.613 32.3983 26.5 32.6709 26.4999 32.9551C26.4998 33.2394 26.6127 33.5121 26.8137 33.7131C29.7615 36.6608 32.6203 38.1554 35.311 38.1554C37.5514 38.1554 39.2501 37.1413 40.4286 36.0525V49.2372C34.7833 49.7484 30.2746 54.2571 29.7635 59.9023H19V62.0452H64V59.9023H53.2366ZM43.5864 37.2413C44.4642 36.2906 45.8431 35.2556 47.6891 35.2556C49.5696 35.2556 51.6481 36.2832 53.8781 38.3127C51.6481 40.3422 49.5696 41.3698 47.6891 41.3698C45.8426 41.3698 44.4634 40.3344 43.586 39.3841H51.3041V37.2413H43.5864ZM43.5103 15.3952C44.6488 13.991 46.6973 12.1429 49.5969 12.1429C52.2147 12.1429 55.0965 13.5968 58.1734 16.4669C55.0963 19.34 52.2153 20.7952 49.5979 20.7951C49.5978 20.7951 49.5972 20.7951 49.597 20.7951C46.6965 20.7946 44.6472 18.943 43.5093 17.538H54.3144V15.3952H43.5103ZM33.4032 20.7952C30.7854 20.7952 27.9037 19.3401 24.8268 16.467C27.9037 13.5968 30.7855 12.1429 33.4032 12.1429C36.3034 12.1429 38.352 13.9915 39.4901 15.3952H28.6858V17.538H39.4992C38.3675 18.9433 36.3228 20.7952 33.4032 20.7952ZM35.3111 36.0127C33.4308 36.0127 31.3524 34.9853 29.1225 32.956C31.3523 30.9293 33.4306 29.9032 35.3111 29.9032C37.1564 29.9032 38.5348 30.9357 39.4123 31.8841H31.6961V34.027H39.4138C38.5361 34.9777 37.1571 36.0127 35.3111 36.0127ZM31.9171 59.9024C32.4518 55.0877 36.5452 51.331 41.5001 51.331C46.455 51.331 50.5484 55.0877 51.0831 59.9024H31.9171Z" fill="#1A6144"/>
</g>
<defs>
<clipPath id="clip0_263_2073">
<rect width="83" height="83" fill="white"/>
</clipPath>
</defs>
</svg>
