<svg width="66" height="64" viewBox="0 0 66 64" fill="none" xmlns="http://www.w3.org/2000/svg">
<path d="M4.19888 62.8825V11.9991L31.7156 0L62.1193 12.4502V63.2434L4.19888 62.8825Z" fill="#BCECD9"/>
<path d="M38.2392 30.7678H26.9476V55.9028H38.2392V30.7678Z" fill="#C5F5D6"/>
<path d="M20.9883 27.063H8.8674V55.7704H20.9883V27.063Z" fill="#E3FFED"/>
<path d="M57.2873 27.127H45.1664V55.8344H57.2873V27.127Z" fill="#E3FFED"/>
<path d="M27.0816 42.5166V56.2324H37.9905V43.1545L36.1085 41.3842C36.1085 41.3842 34.2206 39.6325 34.0067 39.4053C32.7639 38.0857 32.7817 38.1262 31.6748 39.1513C30.5781 40.1669 27.0816 42.5166 27.0816 42.5166Z" fill="#E3FFED"/>
<path d="M62.5822 22.0552H51.163V27.6053H62.5822V22.0552Z" fill="#C5F5D6"/>
<path d="M14.3099 22.0869H2.74313V27.637H14.3099V22.0869Z" fill="#C5F5D6"/>
<path d="M51.482 40.8428H48.9302V45.6911H51.482V40.8428Z" fill="#1A6144"/>
<path d="M51.482 47.3496H48.9302V52.198H51.482V47.3496Z" fill="#1A6144"/>
<path d="M62.8374 55.6428H3.25351V59.4705H62.8374V55.6428Z" fill="#E3FFED"/>
<path d="M65.453 17.175H0.382751V22.2148H65.453V17.175Z" fill="#E3FFED"/>
<path d="M48.6734 13.8577H16.8434C15.1865 13.8577 13.8434 15.2008 13.8434 16.8577V27.6994C13.8434 29.3562 15.1865 30.6994 16.8433 30.6994H48.6734C50.3302 30.6994 51.6734 29.3562 51.6734 27.6994V16.8577C51.6734 15.2008 50.3302 13.8577 48.6734 13.8577Z" fill="#E3FFED"/>
<path d="M65.5168 59.2791H0V63.9998H65.5168V59.2791Z" fill="#BCECD9"/>
<path d="M15.2468 34.0806H12.6951V38.9289H15.2468V34.0806Z" fill="#1A6144"/>
<path d="M15.183 40.7788H12.6313V45.6272H15.183V40.7788Z" fill="#1A6144"/>
<path d="M15.183 47.2859H12.6313V52.1343H15.183V47.2859Z" fill="#1A6144"/>
<path d="M34.7041 42.1184H33.1093V54.3669H34.7041V42.1184Z" fill="#BCECD9"/>
<path d="M3.47714 63.5141L3.65758 14.0742Z" fill="#FFD5E5"/>
<path d="M28.2167 24.779C27.8807 24.779 27.5767 24.725 27.3047 24.617C27.0327 24.509 26.7987 24.357 26.6027 24.161C26.4067 23.965 26.2567 23.735 26.1527 23.471C26.0487 23.203 25.9967 22.913 25.9967 22.601C25.9967 22.289 26.0507 22.003 26.1587 21.743C26.2707 21.479 26.4287 21.249 26.6327 21.053C26.8367 20.857 27.0767 20.705 27.3527 20.597C27.6327 20.489 27.9367 20.435 28.2647 20.435C28.4967 20.435 28.7147 20.465 28.9187 20.525C29.1267 20.585 29.3147 20.667 29.4827 20.771C29.6507 20.875 29.7927 20.995 29.9087 21.131L29.2907 21.785C29.1907 21.689 29.0867 21.609 28.9787 21.545C28.8747 21.481 28.7627 21.431 28.6427 21.395C28.5227 21.355 28.3947 21.335 28.2587 21.335C28.0827 21.335 27.9207 21.367 27.7727 21.431C27.6287 21.495 27.5007 21.585 27.3887 21.701C27.2807 21.813 27.1967 21.947 27.1367 22.103C27.0767 22.255 27.0467 22.421 27.0467 22.601C27.0467 22.781 27.0787 22.949 27.1427 23.105C27.2067 23.261 27.2947 23.397 27.4067 23.513C27.5187 23.625 27.6507 23.715 27.8027 23.783C27.9587 23.847 28.1247 23.879 28.3007 23.879C28.4247 23.879 28.5407 23.859 28.6487 23.819C28.7607 23.779 28.8567 23.725 28.9367 23.657C29.0167 23.589 29.0807 23.509 29.1287 23.417C29.1767 23.321 29.2007 23.219 29.2007 23.111V22.955L29.3327 23.159H28.1747V22.361H30.1487C30.1567 22.405 30.1627 22.465 30.1667 22.541C30.1707 22.617 30.1727 22.691 30.1727 22.763C30.1767 22.835 30.1787 22.889 30.1787 22.925C30.1787 23.197 30.1287 23.447 30.0287 23.675C29.9327 23.899 29.7967 24.093 29.6207 24.257C29.4447 24.421 29.2367 24.549 28.9967 24.641C28.7567 24.733 28.4967 24.779 28.2167 24.779ZM32.8741 24.779C32.5541 24.779 32.2621 24.725 31.9981 24.617C31.7341 24.509 31.5041 24.357 31.3081 24.161C31.1121 23.965 30.9601 23.735 30.8521 23.471C30.7441 23.207 30.6901 22.917 30.6901 22.601C30.6901 22.285 30.7441 21.995 30.8521 21.731C30.9601 21.467 31.1121 21.237 31.3081 21.041C31.5041 20.845 31.7341 20.693 31.9981 20.585C32.2621 20.477 32.5521 20.423 32.8681 20.423C33.1841 20.423 33.4741 20.477 33.7381 20.585C34.0021 20.693 34.2321 20.845 34.4281 21.041C34.6241 21.237 34.7741 21.467 34.8781 21.731C34.9861 21.995 35.0401 22.285 35.0401 22.601C35.0401 22.913 34.9861 23.203 34.8781 23.471C34.7741 23.735 34.6241 23.965 34.4281 24.161C34.2321 24.357 34.0021 24.509 33.7381 24.617C33.4741 24.725 33.1861 24.779 32.8741 24.779ZM32.8681 23.819C33.0321 23.819 33.1821 23.789 33.3181 23.729C33.4581 23.669 33.5781 23.585 33.6781 23.477C33.7821 23.365 33.8621 23.235 33.9181 23.087C33.9741 22.939 34.0021 22.777 34.0021 22.601C34.0021 22.425 33.9741 22.263 33.9181 22.115C33.8621 21.967 33.7821 21.839 33.6781 21.731C33.5781 21.619 33.4581 21.533 33.3181 21.473C33.1821 21.413 33.0321 21.383 32.8681 21.383C32.7041 21.383 32.5521 21.413 32.4121 21.473C32.2761 21.533 32.1561 21.619 32.0521 21.731C31.9481 21.839 31.8681 21.967 31.8121 22.115C31.7601 22.263 31.7341 22.425 31.7341 22.601C31.7341 22.777 31.7601 22.941 31.8121 23.093C31.8681 23.241 31.9481 23.369 32.0521 23.477C32.1561 23.585 32.2761 23.669 32.4121 23.729C32.5521 23.789 32.7041 23.819 32.8681 23.819ZM36.8236 24.719L35.1436 20.519H36.2056L37.0156 22.661C37.0636 22.785 37.1036 22.893 37.1356 22.985C37.1716 23.077 37.2016 23.163 37.2256 23.243C37.2536 23.323 37.2776 23.405 37.2976 23.489C37.3216 23.569 37.3476 23.661 37.3756 23.765H37.1896C37.2216 23.629 37.2536 23.509 37.2856 23.405C37.3176 23.297 37.3536 23.187 37.3936 23.075C37.4336 22.959 37.4836 22.821 37.5436 22.661L38.3236 20.519H39.3676L37.6756 24.719H36.8236Z" fill="black"/>
</svg>
