<svg width="30" height="34" viewBox="0 0 30 34" fill="none" xmlns="http://www.w3.org/2000/svg">
<path d="M14.875 2.125C16.284 2.125 17.6352 2.68471 18.6315 3.681C19.6278 4.67728 20.1875 6.02854 20.1875 7.4375V8.5H9.5625V7.4375C9.5625 6.02854 10.1222 4.67728 11.1185 3.681C12.1148 2.68471 13.466 2.125 14.875 2.125ZM22.3125 8.5V7.4375C22.3125 5.46495 21.5289 3.57319 20.1341 2.17839C18.7393 0.783591 16.8475 0 14.875 0C12.9025 0 11.0107 0.783591 9.61589 2.17839C8.22109 3.57319 7.4375 5.46495 7.4375 7.4375V8.5H0V29.75C0 30.8772 0.447767 31.9582 1.2448 32.7552C2.04183 33.5522 3.12283 34 4.25 34H25.5C26.6272 34 27.7082 33.5522 28.5052 32.7552C29.3022 31.9582 29.75 30.8772 29.75 29.75V8.5H22.3125Z" fill="#2C5A68"/>
</svg>
