<svg width="33" height="32" viewBox="0 0 33 32" fill="none" xmlns="http://www.w3.org/2000/svg">
<path d="M0 4.125C0 3.03098 0.434597 1.98177 1.20818 1.20818C1.98177 0.434597 3.03098 0 4.125 0L28.875 0C29.969 0 31.0182 0.434597 31.7918 1.20818C32.5654 1.98177 33 3.03098 33 4.125V20.625C33 21.719 32.5654 22.7682 31.7918 23.5418C31.0182 24.3154 29.969 24.75 28.875 24.75H9.10388C8.55691 24.7501 8.03239 24.9675 7.64569 25.3543L1.76137 31.2386C1.61727 31.3831 1.43354 31.4816 1.23345 31.5216C1.03336 31.5616 0.82589 31.5413 0.637311 31.4634C0.448732 31.3854 0.287517 31.2533 0.174069 31.0837C0.0606222 30.9141 4.33432e-05 30.7146 0 30.5106L0 4.125ZM10.3125 12.375C10.3125 11.828 10.0952 11.3034 9.70841 10.9166C9.32161 10.5298 8.79701 10.3125 8.25 10.3125C7.70299 10.3125 7.17839 10.5298 6.79159 10.9166C6.4048 11.3034 6.1875 11.828 6.1875 12.375C6.1875 12.922 6.4048 13.4466 6.79159 13.8334C7.17839 14.2202 7.70299 14.4375 8.25 14.4375C8.79701 14.4375 9.32161 14.2202 9.70841 13.8334C10.0952 13.4466 10.3125 12.922 10.3125 12.375ZM18.5625 12.375C18.5625 11.828 18.3452 11.3034 17.9584 10.9166C17.5716 10.5298 17.047 10.3125 16.5 10.3125C15.953 10.3125 15.4284 10.5298 15.0416 10.9166C14.6548 11.3034 14.4375 11.828 14.4375 12.375C14.4375 12.922 14.6548 13.4466 15.0416 13.8334C15.4284 14.2202 15.953 14.4375 16.5 14.4375C17.047 14.4375 17.5716 14.2202 17.9584 13.8334C18.3452 13.4466 18.5625 12.922 18.5625 12.375ZM24.75 14.4375C25.297 14.4375 25.8216 14.2202 26.2084 13.8334C26.5952 13.4466 26.8125 12.922 26.8125 12.375C26.8125 11.828 26.5952 11.3034 26.2084 10.9166C25.8216 10.5298 25.297 10.3125 24.75 10.3125C24.203 10.3125 23.6784 10.5298 23.2916 10.9166C22.9048 11.3034 22.6875 11.828 22.6875 12.375C22.6875 12.922 22.9048 13.4466 23.2916 13.8334C23.6784 14.2202 24.203 14.4375 24.75 14.4375Z" fill="#2C5A68"/>
</svg>
