<svg width="20" height="20" viewBox="0 0 20 20" fill="none" xmlns="http://www.w3.org/2000/svg">
<g clip-path="url(#clip0_181_2017)">
<path d="M7.67567 14.0845C7.52773 14.0845 7.382 14.1444 7.27776 14.2493C7.17284 14.3542 7.1123 14.5 7.1123 14.6479C7.1123 14.7957 7.17284 14.9409 7.27776 15.0465C7.382 15.1513 7.52773 15.2112 7.67567 15.2112C7.82422 15.2112 7.96934 15.1513 8.07426 15.0465C8.17911 14.9415 8.23904 14.7964 8.23904 14.6479C8.23904 14.4993 8.17911 14.3542 8.07426 14.2493C7.96934 14.1443 7.82422 14.0845 7.67567 14.0845Z" fill="#1A6144"/>
<path d="M17.9936 12.4971C17.8551 11.3884 17.2387 10.4197 16.3447 9.90573L13.0431 8.00795C13.7532 7.2569 14.1901 6.24485 14.1901 5.13205C14.1901 5.05273 14.1873 4.97354 14.1827 4.89441H18.1337C18.5226 4.89441 18.838 4.57912 18.838 4.19017C18.838 3.80121 18.5227 3.48593 18.1337 3.48593H15.0159C14.2442 1.41293 12.2411 0 9.99991 0C7.7587 0 5.7556 1.41293 4.98395 3.48593H1.86611C1.47722 3.48593 1.16187 3.80121 1.16187 4.19017C1.16187 4.57912 1.47715 4.89441 1.86611 4.89441H5.81708C5.81257 4.97354 5.80974 5.05279 5.80974 5.13205C5.80974 6.24485 6.24658 7.2569 6.95675 8.00795L3.65513 9.90573C2.76126 10.4195 2.14483 11.3883 2.00618 12.4971L1.16732 19.2084C1.14227 19.4088 1.20456 19.6104 1.33816 19.7618C1.47183 19.9133 1.66415 20 1.86611 20H18.1337C18.3357 20 18.528 19.9133 18.6617 19.7618C18.7953 19.6104 18.8576 19.4088 18.8325 19.2084L17.9936 12.4971ZM6.05628 13.0281H13.9436V18.5915H6.05628V13.0281ZM7.21823 11.6197V9.48222L8.20267 8.91636C8.74766 9.17623 9.35702 9.32216 9.99998 9.32216C10.6429 9.32216 11.2522 9.17623 11.7973 8.91636L12.7817 9.48222V11.6197H7.21823ZM9.99991 1.40842C11.4308 1.40842 12.7299 2.18997 13.4212 3.39199H6.57863C7.26995 2.18997 8.56907 1.40842 9.99991 1.40842ZM12.7714 4.89434C12.7782 4.9734 12.7816 5.05266 12.7816 5.13199C12.7816 6.66579 11.5337 7.91367 9.99991 7.91367C8.46611 7.91367 7.21823 6.66579 7.21823 5.13199C7.21823 5.05259 7.22166 4.9734 7.22847 4.89434H12.7714ZM3.40375 12.6718C3.48786 11.9991 3.84416 11.4216 4.35702 11.1268L5.80974 10.2918V11.6197H5.35197C4.96308 11.6197 4.64772 11.9351 4.64772 12.324V18.5916H2.66389L3.40375 12.6718ZM15.352 18.5916V12.324C15.352 11.9351 15.0367 11.6197 14.6478 11.6197H14.19V10.2918L15.6427 11.1268C16.1556 11.4216 16.5119 11.9992 16.5959 12.6718L17.3359 18.5915L15.352 18.5916Z" fill="#1A6144"/>
<path d="M12.3236 14.0845C12.1757 14.0845 12.03 14.1444 11.9257 14.2493C11.8208 14.3542 11.7603 14.4993 11.7603 14.6479C11.7603 14.7964 11.8208 14.9415 11.9257 15.0465C12.03 15.1513 12.1757 15.2112 12.3236 15.2112C12.4722 15.2112 12.6173 15.1513 12.7222 15.0465C12.8271 14.9415 12.887 14.7957 12.887 14.6479C12.887 14.4993 12.8271 14.3542 12.7222 14.2493C12.6173 14.1443 12.4722 14.0845 12.3236 14.0845Z" fill="#1A6144"/>
</g>
<defs>
<clipPath id="clip0_181_2017">
<rect width="20" height="20" fill="white"/>
</clipPath>
</defs>
</svg>
