<svg width="28" height="30" viewBox="0 0 28 30" fill="none" xmlns="http://www.w3.org/2000/svg">
<path d="M10.625 28.6894V21.2413C10.625 20.7206 11.1563 20.1894 11.6875 20.1894H15.9375C16.4688 20.1894 17 20.7206 17 21.2519V28.6894C17 28.9712 17.1119 29.2414 17.3112 29.4407C17.5105 29.64 17.7807 29.7519 18.0625 29.7519H26.5625C26.8443 29.7519 27.1145 29.64 27.3138 29.4407C27.5131 29.2414 27.625 28.9712 27.625 28.6894V13.8144C27.6253 13.6748 27.598 13.5365 27.5447 13.4074C27.4915 13.2783 27.4134 13.161 27.3148 13.0621L24.4375 10.187V3.1894C24.4375 2.90761 24.3256 2.63736 24.1263 2.4381C23.927 2.23884 23.6568 2.1269 23.375 2.1269H21.25C20.9682 2.1269 20.698 2.23884 20.4987 2.4381C20.2994 2.63736 20.1875 2.90761 20.1875 3.1894V5.93702L14.5648 0.312149C14.4661 0.213202 14.3488 0.134699 14.2197 0.0811351C14.0906 0.0275714 13.9523 0 13.8125 0C13.6727 0 13.5344 0.0275714 13.4053 0.0811351C13.2762 0.134699 13.1589 0.213202 13.0603 0.312149L0.310252 13.0621C0.211648 13.161 0.133494 13.2783 0.0802595 13.4074C0.0270246 13.5365 -0.000247668 13.6748 1.69468e-06 13.8144V28.6894C1.69468e-06 28.9712 0.111943 29.2414 0.311201 29.4407C0.510458 29.64 0.780709 29.7519 1.0625 29.7519H9.5625C9.84429 29.7519 10.1145 29.64 10.3138 29.4407C10.5131 29.2414 10.625 28.9712 10.625 28.6894Z" fill="#2C5A68"/>
</svg>
