<svg width="139" height="148" viewBox="0 0 139 148" fill="none" xmlns="http://www.w3.org/2000/svg">
<g id="Logo">
<g id="Left Hand">
<path id="path5022" d="M55.3045 147.27L24.1116 147.101V138.165L0.168938 96.8552L0.000217438 45.0918C0.000217438 45.0918 0.506062 39.0218 6.74464 38.8532C12.9832 38.6846 14.3321 44.586 14.3321 44.586V80.1628L22.2568 80.3314L52.6067 112.873L56.1475 118.606L55.3045 147.27Z" fill="#F2BB80"/>
<path id="path5073" d="M29.6757 113.21L10.96 91.4596C10.96 91.4596 8.59944 88.256 9.10528 83.7035C9.61111 79.151 14.3322 80.4999 14.3322 80.4999L14.8597 87.658L14.9884 89.0252L15.1684 89.5189L15.3971 89.9548L15.6334 90.205L16.2272 90.8338L33.8911 109.501C33.8911 109.501 35.2399 114.728 29.6757 113.21Z" fill="#EA9A6F"/>
</g>
<g id="RIghtHand">
<path id="path5022-7" d="M83.6957 145.456L114.889 145.287V136.351L138.831 95.0416L139 43.2782C139 43.2782 138.494 37.2082 132.256 37.0396C126.017 36.871 124.668 42.7724 124.668 42.7724V78.3492L116.743 78.5178L86.3936 111.06L82.8528 116.792L83.6957 145.456Z" fill="#F2BB80"/>
<path id="path5073-0" d="M109.325 111.397L128.04 89.6458C128.04 89.6458 130.401 86.4423 129.895 81.8898C129.389 77.3373 124.668 78.6862 124.668 78.6862L124.141 85.8443L124.012 87.2115L123.832 87.7052L123.603 88.1411L123.367 88.3913L122.773 89.02L105.109 107.687C105.109 107.687 103.76 112.914 109.325 111.397Z" fill="#EA9A6F"/>
</g>
<g id="TREE">
<path id="branch" d="M67.1242 12.8302H69.8296C70.0193 12.8302 70.2013 12.9056 70.3354 13.0398C70.4696 13.1739 70.5449 13.3559 70.5449 13.5456V108.112C70.5449 108.23 70.4978 108.344 70.414 108.428C70.3301 108.512 70.2164 108.559 70.0978 108.559H66.9305C66.8737 108.559 66.8175 108.548 66.7651 108.526C66.7127 108.504 66.665 108.472 66.6249 108.432C66.5847 108.392 66.5529 108.344 66.5312 108.292C66.5095 108.24 66.4983 108.183 66.4983 108.127V13.4562C66.4983 13.374 66.5145 13.2926 66.5459 13.2166C66.5774 13.1407 66.6235 13.0717 66.6816 13.0136C66.7398 12.9555 66.8087 12.9093 66.8847 12.8779C66.9606 12.8464 67.042 12.8302 67.1242 12.8302Z" fill="#26C485"/>
<path id="LeafR1" d="M69.3743 16.9191C69.3743 16.9191 66.9656 6.56031 59.5387 2.77534C52.1119 -1.00962 46.1904 0.185627 46.1904 0.185627C46.1904 0.185627 47.0937 8.8512 51.9111 12.4369C56.7286 16.0227 62.9511 18.9112 69.3743 16.9191Z" fill="#26C485"/>
<path id="LeafR2" d="M68.7421 49.4577C68.7421 49.4577 65.6326 35.5188 56.0452 30.4258C46.4578 25.3328 38.8137 26.9411 38.8137 26.9411C38.8137 26.9411 39.9798 38.6015 46.1987 43.4264C52.4175 48.2515 60.4503 52.1382 68.7421 49.4577Z" fill="#26C485"/>
<path id="LeafR3" d="M68.9108 83.0108C68.9108 83.0108 65.8013 69.072 56.2139 63.9789C46.6265 58.8859 38.9824 60.4942 38.9824 60.4942C38.9824 60.4942 40.1485 72.1546 46.3674 76.9796C52.5862 81.8045 60.6189 85.6914 68.9108 83.0108Z" fill="#26C485"/>
<path id="LeafR1_2" d="M67.8792 16.9126C67.8792 16.9126 70.2879 6.55378 77.7148 2.76881C85.1416 -1.01615 91.063 0.1791 91.063 0.1791C91.063 0.1791 90.1598 8.84468 85.3424 12.4304C80.5249 16.0162 74.3024 18.9047 67.8792 16.9126Z" fill="#228F63"/>
<path id="LeafR2_2" d="M66.9939 49.1137C66.9939 49.1137 70.1033 35.1749 79.6908 30.0819C89.2782 24.9888 96.9222 26.5972 96.9222 26.5972C96.9222 26.5972 95.7562 38.2575 89.5373 43.0825C83.3184 47.9075 75.2857 51.7943 66.9939 49.1137Z" fill="#228F63"/>
<path id="LeafR3_2" d="M66.8252 82.6675C66.8252 82.6675 69.9346 68.7287 79.5221 63.6357C89.1095 58.5426 96.7535 60.151 96.7535 60.151C96.7535 60.151 95.5875 71.8113 89.3686 76.6363C83.1497 81.4613 75.117 85.3481 66.8252 82.6675Z" fill="#228F63"/>
</g>
</g>
</svg>
