<svg width="63" height="63" viewBox="0 0 63 63" fill="none" xmlns="http://www.w3.org/2000/svg">
<path d="M31.5005 63.0011C48.8978 63.0011 63.0011 48.8978 63.0011 31.5006C63.0011 14.1033 48.8978 0 31.5005 0C14.1033 0 0 14.1033 0 31.5006C0 48.8978 14.1033 63.0011 31.5005 63.0011Z" fill="#BCECD9"/>
<path d="M18.2137 18.3628H16.7688C16.5693 18.3628 16.4076 18.5245 16.4076 18.724V50.0299C16.4076 50.2294 16.5693 50.3911 16.7688 50.3911H18.2137C18.4132 50.3911 18.5749 50.2294 18.5749 50.0299V18.724C18.5749 18.5245 18.4132 18.3628 18.2137 18.3628Z" fill="#1A6144"/>
<path d="M45.4222 18.3423H44.0343C43.8191 18.3423 43.6446 18.5168 43.6446 18.732V52.5094C43.6446 52.7246 43.8191 52.8991 44.0343 52.8991H45.4222C45.6374 52.8991 45.8119 52.7246 45.8119 52.5094V18.732C45.8119 18.5168 45.6374 18.3423 45.4222 18.3423Z" fill="#1A6144"/>
<path d="M21.3278 12.4539C21.3278 8.80968 19.6125 5.85547 17.4965 5.85547C15.3805 5.85547 13.6651 8.80968 13.6651 12.4539C13.6651 16.0981 15.3805 19.0523 17.4965 19.0523C19.6125 19.0523 21.3278 16.0981 21.3278 12.4539Z" fill="#1A6144"/>
<path d="M21.319 12.3218C21.319 8.6776 19.7576 5.72339 17.8314 5.72339C15.9053 5.72339 14.3439 8.6776 14.3439 12.3218C14.3439 15.966 15.9053 18.9202 17.8314 18.9202C19.7576 18.9202 21.319 15.966 21.319 12.3218Z" fill="#E3FFED"/>
<path d="M49.8716 14.4908C50.9272 11.3299 50.1975 8.12058 48.2418 7.32267C46.2861 6.52476 43.845 8.44039 42.7895 11.6013C41.7339 14.7623 42.4636 17.9716 44.4193 18.7695C46.3749 19.5674 48.816 17.6518 49.8716 14.4908Z" fill="#1A6144"/>
<path d="M49.9017 14.3729C50.9573 11.212 50.3698 8.06073 48.5896 7.33441C46.8094 6.60809 44.5106 8.58175 43.455 11.7427C42.3994 14.9037 42.9869 18.0549 44.7671 18.7812C46.5473 19.5076 48.8461 17.5339 49.9017 14.3729Z" fill="#E3FFED"/>
<path d="M44.8017 26.3226L50.2307 22.8936L50.9391 23.7401L45.5101 27.1691L44.8017 26.3226Z" fill="#1A6144"/>
<path d="M43.5598 38.0457L48.9888 34.6167L49.6973 35.4633L44.2682 38.8923L43.5598 38.0457Z" fill="#1A6144"/>
<path d="M44.8319 42.0687L49.7524 46.1943L49.162 47.1271L44.2415 43.0014L44.8319 42.0687Z" fill="#1A6144"/>
<path d="M55.1932 33.1478C56.8448 30.8956 56.8256 28.165 55.1504 27.0487C53.4752 25.9325 50.7783 26.8533 49.1268 29.1055C47.4752 31.3577 47.4944 34.0884 49.1696 35.2046C50.8448 36.3209 53.5416 35.4 55.1932 33.1478Z" fill="#1A6144"/>
<path d="M55.2461 33.0618C56.8976 30.8096 57.0003 28.1601 55.4754 27.144C53.9505 26.1279 51.3755 27.13 49.7239 29.3821C48.0724 31.6343 47.9697 34.2838 49.4946 35.2999C51.0195 36.316 53.5945 35.3139 55.2461 33.0618Z" fill="#E3FFED"/>
<path d="M17.7776 25.4127L23.2066 21.9836L23.915 22.8302L18.486 26.2592L17.7776 25.4127Z" fill="#1A6144"/>
<path d="M16.5357 37.1361L21.9647 33.707L22.6732 34.5536L17.2442 37.9826L16.5357 37.1361Z" fill="#1A6144"/>
<path d="M17.145 47.3275L22.574 43.8984L23.2824 44.745L17.8534 48.174L17.145 47.3275Z" fill="#1A6144"/>
<path d="M55.2191 23.726C56.8707 21.4738 56.8515 18.7431 55.1763 17.6269C53.5011 16.5106 50.8042 17.4315 49.1527 19.6837C47.5011 21.9359 47.5203 24.6665 49.1955 25.7828C50.8707 26.899 53.5676 25.9781 55.2191 23.726Z" fill="#1A6144"/>
<path d="M55.272 23.6399C56.9235 21.3877 57.0262 18.7382 55.5013 17.7221C53.9764 16.706 51.4014 17.7081 49.7498 19.9603C48.0983 22.2125 47.9956 24.8619 49.5205 25.878C51.0454 26.8941 53.6204 25.8921 55.272 23.6399Z" fill="#E3FFED"/>
<path d="M38.8272 18.5095C36.8247 16.5627 34.1176 16.2046 32.7806 17.7096C31.4437 19.2145 31.9833 22.0128 33.9858 23.9595C35.9883 25.9063 38.6954 26.2645 40.0324 24.7595C41.3693 23.2545 40.8297 20.4563 38.8272 18.5095Z" fill="#1A6144"/>
<path d="M38.7491 18.4453C36.7466 16.4985 34.1367 16.0309 32.9197 17.4008C31.7028 18.7708 32.3396 21.4595 34.3421 23.4063C36.3446 25.3531 38.9545 25.8207 40.1715 24.4508C41.3884 23.0808 40.7516 20.3921 38.7491 18.4453Z" fill="#E3FFED"/>
<path d="M44.6475 43.4203L39.2185 46.8494L38.51 46.0028L43.939 42.5738L44.6475 43.4203Z" fill="#1A6144"/>
<path d="M38.8488 34.8278L44.2779 38.2568L44.9863 37.4103L39.5573 33.9812L38.8488 34.8278Z" fill="#1A6144"/>
<path d="M39.0223 24.4557L44.4513 27.8848L45.1597 27.0382L39.7307 23.6092L39.0223 24.4557Z" fill="#1A6144"/>
<path d="M17.2448 26.9073L13.7576 23.7068L13.3025 24.4969L16.7897 27.6974L17.2448 26.9073Z" fill="#1A6144"/>
<path d="M18.0425 37.8494L14.5553 34.6489L14.1002 35.4391L17.5874 38.6396L18.0425 37.8494Z" fill="#1A6144"/>
<path d="M17.6512 47.3616L14.1639 44.1611L13.7089 44.9513L17.1961 48.1518L17.6512 47.3616Z" fill="#1A6144"/>
<path d="M39.7328 28.7026C37.7303 26.7559 35.0232 26.3977 33.6862 27.9027C32.3493 29.4077 32.8889 32.2059 34.8914 34.1527C36.8939 36.0994 39.601 36.4576 40.938 34.9526C42.2749 33.4476 41.7353 30.6494 39.7328 28.7026Z" fill="#1A6144"/>
<path d="M39.6547 28.6384C37.6522 26.6916 35.0423 26.224 33.8254 27.5939C32.6084 28.9639 33.2452 31.6526 35.2477 33.5994C37.2502 35.5462 39.8601 36.0138 41.0771 34.6439C42.294 33.2739 41.6572 30.5852 39.6547 28.6384Z" fill="#E3FFED"/>
<path d="M29.7881 23.8537C32.0328 21.5198 32.289 18.5979 30.3604 17.3274C28.4318 16.057 25.0486 16.9191 22.8039 19.2531C20.5592 21.587 20.303 24.509 22.2316 25.7794C24.1602 27.0498 27.5434 26.1877 29.7881 23.8537Z" fill="#1A6144"/>
<path d="M29.8614 23.764C32.1061 21.43 32.5026 18.6005 30.747 17.444C28.9914 16.2876 25.7485 17.2421 23.5038 19.5761C21.2591 21.91 20.8626 24.7396 22.6182 25.896C24.3738 27.0525 27.6166 26.0979 29.8614 23.764Z" fill="#E3FFED"/>
<path d="M29.4633 33.4529C31.708 31.1189 31.9643 28.197 30.0357 26.9265C28.107 25.6561 24.7239 26.5183 22.4792 28.8522C20.2345 31.1862 19.9783 34.1081 21.9069 35.3785C23.8355 36.649 27.2186 35.7868 29.4633 33.4529Z" fill="#1A6144"/>
<path d="M29.5366 33.3631C31.7813 31.0291 32.1779 28.1996 30.4223 27.0432C28.6667 25.8867 25.4238 26.8413 23.1791 29.1752C20.9344 31.5092 20.5379 34.3387 22.2935 35.4951C24.0491 36.6516 27.2919 35.697 29.5366 33.3631Z" fill="#E3FFED"/>
<path d="M29.5235 42.8288C31.7682 40.4949 32.0245 37.573 30.0959 36.3025C28.1672 35.0321 24.7841 35.8942 22.5394 38.2282C20.2947 40.5621 20.0385 43.4841 21.9671 44.7545C23.8957 46.0249 27.2788 45.1628 29.5235 42.8288Z" fill="#1A6144"/>
<path d="M29.5968 42.7391C31.8415 40.4051 32.2381 37.5756 30.4825 36.4191C28.7269 35.2627 25.484 36.2172 23.2393 38.5512C20.9946 40.8851 20.5981 43.7147 22.3537 44.8711C24.1093 46.0276 27.3521 45.073 29.5968 42.7391Z" fill="#E3FFED"/>
<path d="M12.8964 18.9663C15.1411 21.0685 15.3973 23.7003 13.4687 24.8446C11.5401 25.9889 8.15696 25.2123 5.91225 23.1101C3.66755 21.0079 3.41132 18.3761 5.33994 17.2318C7.26856 16.0875 10.6517 16.8641 12.8964 18.9663Z" fill="#1A6144"/>
<path d="M12.9697 19.0473C15.2144 21.1495 15.6109 23.6981 13.8553 24.7397C12.0998 25.7813 8.85688 24.9216 6.61218 22.8193C4.36748 20.7171 3.97097 18.1685 5.72655 17.1269C7.48214 16.0853 10.725 16.9451 12.9697 19.0473Z" fill="#E3FFED"/>
<path d="M13.0508 29.943C15.2955 32.0041 15.5518 34.5843 13.6232 35.7062C11.6945 36.8281 8.31139 36.0667 6.06669 34.0057C3.82199 31.9447 3.56575 29.3644 5.49437 28.2425C7.42299 27.1206 10.8061 27.882 13.0508 29.943Z" fill="#1A6144"/>
<path d="M13.1241 30.0221C15.3688 32.0832 15.7653 34.5818 14.0098 35.6031C12.2542 36.6243 9.01131 35.7813 6.76661 33.7203C4.52191 31.6593 4.1254 29.1606 5.88098 28.1394C7.63656 27.1182 10.8794 27.9611 13.1241 30.0221Z" fill="#E3FFED"/>
<path d="M12.9055 39.7917C15.1502 41.8527 15.4064 44.433 13.4778 45.5548C11.5492 46.6767 8.16603 45.9154 5.92133 43.8543C3.67663 41.7933 3.4204 39.213 5.34902 38.0912C7.27764 36.9693 10.6608 37.7306 12.9055 39.7917Z" fill="#1A6144"/>
<path d="M12.9788 39.871C15.2235 41.932 15.62 44.4307 13.8644 45.4519C12.1088 46.4732 8.86596 45.6302 6.62125 43.5692C4.37655 41.5081 3.98004 39.0095 5.73563 37.9883C7.49121 36.967 10.7341 37.81 12.9788 39.871Z" fill="#E3FFED"/>
<path d="M7.97787 52.17L12.1691 50.979C12.1691 50.979 17.8641 49.3695 20.2637 50.7215C22.6633 52.0735 25.8646 52.669 27.4324 52.0574C29.0001 51.4458 31.6071 50.5195 31.6071 50.5195C31.6071 50.5195 34.3517 50.1187 35.9514 50.0221C37.5511 49.9256 38.7136 50.7474 41.2926 51.8253C42.1165 52.1696 44.1384 52.3045 45.6197 51.874C47.3699 51.3654 48.8494 50.6977 48.8494 50.6977C48.8494 50.6977 51.0973 50.0461 52.6739 50.1743C55.516 50.0897 57.1211 50.2708 57.1211 50.2708C57.1211 50.2708 55.3934 52.7816 52.7379 54.874C50.0824 56.9663 46.755 62.6961 34.2772 62.8893C21.7994 63.0824 14.9526 59.284 11.5612 56.1616C8.16983 53.0392 7.97787 52.17 7.97787 52.17Z" fill="#E3FFED"/>
</svg>
