<svg width="47" height="47" viewBox="0 0 47 47" fill="none" xmlns="http://www.w3.org/2000/svg">
<g clip-path="url(#clip0_236_2421)">
<path d="M35.25 23.5C35.25 26.6163 34.0121 29.605 31.8085 31.8085C29.605 34.0121 26.6163 35.25 23.5 35.25C20.3837 35.25 17.395 34.0121 15.1915 31.8085C12.9879 29.605 11.75 26.6163 11.75 23.5C11.75 20.3837 12.9879 17.395 15.1915 15.1915C17.395 12.9879 20.3837 11.75 23.5 11.75C26.6163 11.75 29.605 12.9879 31.8085 15.1915C34.0121 17.395 35.25 20.3837 35.25 23.5ZM23.5 0C23.8895 0 24.2631 0.154743 24.5386 0.430187C24.814 0.705631 24.9688 1.07921 24.9688 1.46875V7.34375C24.9688 7.73329 24.814 8.10687 24.5386 8.38231C24.2631 8.65776 23.8895 8.8125 23.5 8.8125C23.1105 8.8125 22.7369 8.65776 22.4614 8.38231C22.186 8.10687 22.0312 7.73329 22.0312 7.34375V1.46875C22.0312 1.07921 22.186 0.705631 22.4614 0.430187C22.7369 0.154743 23.1105 0 23.5 0ZM23.5 38.1875C23.8895 38.1875 24.2631 38.3422 24.5386 38.6177C24.814 38.8931 24.9688 39.2667 24.9688 39.6562V45.5312C24.9688 45.9208 24.814 46.2944 24.5386 46.5698C24.2631 46.8453 23.8895 47 23.5 47C23.1105 47 22.7369 46.8453 22.4614 46.5698C22.186 46.2944 22.0312 45.9208 22.0312 45.5312V39.6562C22.0312 39.2667 22.186 38.8931 22.4614 38.6177C22.7369 38.3422 23.1105 38.1875 23.5 38.1875ZM47 23.5C47 23.8895 46.8453 24.2631 46.5698 24.5386C46.2944 24.814 45.9208 24.9688 45.5312 24.9688H39.6562C39.2667 24.9688 38.8931 24.814 38.6177 24.5386C38.3422 24.2631 38.1875 23.8895 38.1875 23.5C38.1875 23.1105 38.3422 22.7369 38.6177 22.4614C38.8931 22.186 39.2667 22.0312 39.6562 22.0312H45.5312C45.9208 22.0312 46.2944 22.186 46.5698 22.4614C46.8453 22.7369 47 23.1105 47 23.5ZM8.8125 23.5C8.8125 23.8895 8.65776 24.2631 8.38231 24.5386C8.10687 24.814 7.73329 24.9688 7.34375 24.9688H1.46875C1.07921 24.9688 0.705631 24.814 0.430187 24.5386C0.154743 24.2631 0 23.8895 0 23.5C0 23.1105 0.154743 22.7369 0.430187 22.4614C0.705631 22.186 1.07921 22.0312 1.46875 22.0312H7.34375C7.73329 22.0312 8.10687 22.186 8.38231 22.4614C8.65776 22.7369 8.8125 23.1105 8.8125 23.5ZM40.1174 6.88256C40.3928 7.15799 40.5475 7.53151 40.5475 7.92097C40.5475 8.31043 40.3928 8.68394 40.1174 8.95937L35.9638 13.1159C35.8273 13.2523 35.6652 13.3604 35.4868 13.4342C35.3085 13.5079 35.1174 13.5458 34.9244 13.5456C34.5346 13.5454 34.1609 13.3903 33.8855 13.1145C33.7492 12.9779 33.641 12.8158 33.5673 12.6375C33.4936 12.4591 33.4557 12.268 33.4558 12.075C33.4561 11.6853 33.6112 11.3116 33.887 11.0362L38.0406 6.88256C38.3161 6.60721 38.6896 6.45253 39.079 6.45253C39.4685 6.45253 39.842 6.60721 40.1174 6.88256ZM13.113 33.887C13.3883 34.1624 13.543 34.5359 13.543 34.9254C13.543 35.3149 13.3883 35.6884 13.113 35.9638L8.95937 40.1174C8.68237 40.385 8.31136 40.533 7.92625 40.5297C7.54115 40.5263 7.17277 40.3719 6.90045 40.0995C6.62814 39.8272 6.47367 39.4588 6.47032 39.0737C6.46698 38.6886 6.61502 38.3176 6.88256 38.0406L11.0362 33.887C11.3116 33.6117 11.6851 33.457 12.0746 33.457C12.4641 33.457 12.8376 33.6117 13.113 33.887ZM40.1174 40.1174C39.842 40.3928 39.4685 40.5475 39.079 40.5475C38.6896 40.5475 38.3161 40.3928 38.0406 40.1174L33.887 35.9638C33.6195 35.6868 33.4714 35.3158 33.4748 34.9307C33.4781 34.5456 33.6326 34.1772 33.9049 33.9049C34.1772 33.6326 34.5456 33.4781 34.9307 33.4748C35.3158 33.4714 35.6868 33.6195 35.9638 33.887L40.1174 38.0406C40.3928 38.3161 40.5475 38.6896 40.5475 39.079C40.5475 39.4685 40.3928 39.842 40.1174 40.1174ZM13.113 13.1159C12.8376 13.3913 12.4641 13.546 12.0746 13.546C11.6851 13.546 11.3116 13.3913 11.0362 13.1159L6.88256 8.95937C6.74228 8.82389 6.63039 8.66182 6.55341 8.48263C6.47644 8.30343 6.43592 8.1107 6.43423 7.91568C6.43253 7.72066 6.46969 7.52726 6.54354 7.34676C6.61739 7.16625 6.72645 7.00226 6.86436 6.86436C7.00226 6.72645 7.16625 6.61739 7.34676 6.54354C7.52726 6.46969 7.72066 6.43253 7.91568 6.43423C8.1107 6.43592 8.30343 6.47644 8.48263 6.55341C8.66182 6.63039 8.82389 6.74228 8.95937 6.88256L13.113 11.0362C13.2498 11.1726 13.3583 11.3347 13.4323 11.5131C13.5064 11.6916 13.5445 11.8829 13.5445 12.0761C13.5445 12.2693 13.5064 12.4605 13.4323 12.639C13.3583 12.8174 13.2498 12.9795 13.113 13.1159Z" fill="#1A6144"/>
</g>
<defs>
<clipPath id="clip0_236_2421">
<rect width="47" height="47" fill="white"/>
</clipPath>
</defs>
</svg>
