<svg width="80" height="80" viewBox="0 0 80 80" fill="none" xmlns="http://www.w3.org/2000/svg">
<path d="M62.2798 45.3818L65.8238 49.2211L67.5958 45.0864L70.2539 47.9414V54.6357L59.6217 55.2263L59.2279 47.646L62.2798 45.3818Z" fill="#1A6144"/>
<path d="M41.4885 36.198L40.9316 24.9209L33.8312 8.49261L38.4256 7.93572L41.6277 15.3145L41.9062 0L48.7281 0.55689L48.5888 15.1753L52.2086 8.21416H56.5245L51.7909 22.5541L45.9436 39.957L42.6022 43.2984L41.4885 36.198Z" fill="#1A6144"/>
<path d="M14.5336 53.7495C14.5336 53.7495 10.8911 47.9412 9.41444 44.3972C7.93775 40.8531 7.74085 40.9516 7.34708 37.7028C6.95329 34.4541 9.1191 32.4852 11.1865 31.5008C13.2538 30.5163 18.5699 30.5163 19.8497 33.0759C21.1295 35.6355 23.5906 42.2314 23.5906 42.2314L28.6113 52.5681L31.5647 59.0656L23.689 62.6096C23.689 62.6096 12.6631 60.1485 12.6631 59.5578C12.6631 58.9671 14.5336 53.7495 14.5336 53.7495Z" fill="#BCECD9"/>
<path d="M28.2931 53.0051C28.2931 53.0051 19.8838 47.1937 23.777 40.7707C27.6702 34.3476 29.6947 36.6416 31.0962 37.2533C32.4978 37.865 34.9894 40.1589 34.9894 40.1589C34.9894 40.1589 40.1284 34.6535 42.6201 37.5591C45.1117 40.4648 47.4477 46.2762 45.8904 49.4877C44.3331 52.6992 37.7925 54.9932 37.7925 54.9932L31.2519 54.0756L28.2931 53.0051Z" fill="#C5F5D6"/>
<path d="M79.3572 52.905H0V61.8153H79.3572V52.905Z" fill="#E3FFED"/>
<path d="M79.3746 61.7979H0.017395V70.7081H79.3746V61.7979Z" fill="#BCECD9"/>
<path d="M79.3579 70.7007H0.000701904V79.611H79.3579V70.7007Z" fill="#E3FFED"/>
<path d="M18.0652 55.9678H10.3025V58.44H18.0652V55.9678Z" fill="#C5F5D6"/>
<path d="M75.1197 56.2544H67.357V58.7266H75.1197V56.2544Z" fill="#C5F5D6"/>
<path d="M17.7479 73.3389H9.98515V75.8111H17.7479V73.3389Z" fill="#C5F5D6"/>
<path d="M74.8023 73.6257H67.0396V76.098H74.8023V73.6257Z" fill="#C5F5D6"/>
<path d="M17.8463 64.3804H10.0836V66.8526H17.8463V64.3804Z" fill="#C5F5D6"/>
<path d="M74.9008 64.6675H67.1381V67.1397H74.9008V64.6675Z" fill="#C5F5D6"/>
<path d="M59.7202 47.7446C59.7202 47.7446 51.5492 48.3352 49.6787 44.0036C47.8082 39.672 49.7771 36.9155 49.7771 36.9155L49.9741 30.7135C49.9741 30.7135 52.3368 26.8741 53.6166 25.5943C54.8964 24.3145 57.1606 22.444 58.1451 22.0502C59.1295 21.6565 62.1813 19.1953 64.0518 19.1953C65.9223 19.1953 71.9275 22.7394 73.5026 23.6254C75.0777 24.5114 77.0466 29.1383 77.6373 31.1072C78.228 33.0762 80 38.5891 80 41.0503C80 43.5114 76.6528 46.071 74.2902 47.5477C71.9275 49.0244 70.2539 48.9259 69.5648 47.5477C68.8756 46.1694 66.4145 44.4958 65.0363 44.0036C63.658 43.5114 59.7202 47.7446 59.7202 47.7446Z" fill="#BCECD9"/>
<path d="M7.15019 34.6512C7.15019 34.6512 -2.00526 34.5527 1.24345 26.3817C4.49216 18.2107 7.15019 18.3092 7.15019 18.3092C7.15019 18.3092 11.4818 18.0138 13.0569 18.6045C14.6321 19.1952 22.2124 22.4439 21.2279 26.7755C20.2435 31.1071 16.601 30.418 16.601 30.418L14.8289 31.1071L10.0051 34.5527L7.15019 34.6512Z" fill="#1A6144"/>
<path d="M15.2258 29.3268C15.0254 28.4724 14.9547 27.595 14.8996 26.7214C14.9182 25.9956 15.0512 25.2442 15.4775 24.6372C15.561 24.5182 15.6647 24.4146 15.7583 24.3033C16.0675 23.9517 16.4393 23.6735 16.817 23.4023L14.9022 22.1887C14.5173 22.4787 14.1357 22.7734 13.815 23.1367C13.7143 23.2588 13.6034 23.3731 13.5129 23.503C13.0642 24.1467 12.9124 24.9365 12.878 25.7054C12.9205 26.5844 13.0054 27.4613 13.1565 28.3288L15.2258 29.3268Z" fill="#C5F5D6"/>
<path d="M9.51357 32.2581C9.32961 31.2941 8.94915 30.4153 8.44248 29.5805C8.19678 29.2375 7.94115 28.8917 7.62143 28.6122C6.9747 28.0468 4.965 27.0555 4.86548 26.9997C4.38518 26.8053 3.87172 26.7961 3.36214 26.7849L5.21089 28.1374C5.70734 28.159 6.20161 28.2035 6.65555 28.4253C6.08815 28.0921 5.51872 27.7624 4.95337 27.4258C4.86361 27.3723 5.13805 27.5236 5.22867 27.5756C5.32497 27.6309 5.42466 27.6816 5.51397 27.7476C5.85467 27.9993 6.11232 28.3465 6.37726 28.6707C6.89913 29.467 7.28847 30.3119 7.44904 31.257L9.51357 32.2581Z" fill="#C5F5D6"/>
<path d="M10.0945 27.5834C9.72907 26.8936 9.44262 26.1688 9.17415 25.437C8.94148 24.786 8.74451 24.1276 8.63834 23.4441C8.57113 22.9369 8.56647 22.4249 8.56136 21.9143C8.56089 21.5934 8.56077 21.753 8.56177 21.4354L6.51733 20.3931C6.51672 20.7119 6.51699 20.5516 6.51672 20.8737C6.51671 21.3952 6.52765 21.9174 6.58791 22.4359C6.68137 23.1383 6.8762 23.8123 7.11756 24.4781C7.38105 25.2052 7.64524 25.9347 8.00257 26.6221L10.0945 27.5834Z" fill="#C5F5D6"/>
<path d="M61.0567 28.1279C62.0043 27.1762 63.066 26.3651 64.1935 25.6414C65.3131 24.9146 66.2223 24.7724 67.5038 25.05C68.1074 25.2617 68.6937 25.5248 69.2523 25.8361C70.4149 26.4296 66.7898 24.3779 67.8285 25.0115L69.9753 25.8396C69.1435 25.3505 68.326 24.8342 67.4647 24.3988C66.8979 24.1118 66.3184 23.8403 65.699 23.6869C64.3624 23.473 63.46 23.6806 62.3184 24.4375C61.1844 25.1813 60.1248 26.0157 59.1071 26.9124L61.0567 28.1279Z" fill="#1A6144"/>
<path d="M57.9993 41.7918C58.5181 42.0883 59.0359 42.3865 59.5556 42.6813C59.7084 42.768 59.2495 42.5085 59.0999 42.4162C58.9378 42.3162 58.7743 42.2179 58.6212 42.1046C58.1706 41.7711 57.8239 41.3635 57.4758 40.9299C56.8717 40.1225 56.6125 39.1523 56.3197 38.2051C56.0373 37.2272 55.8512 36.21 55.8828 35.1901C55.9721 34.3749 56.3067 33.7742 56.8718 33.1981C57.2163 32.8601 57.0434 33.0176 57.3884 32.7235L55.4503 31.5183C55.1037 31.8305 55.2773 31.6659 54.9311 32.0132C54.3355 32.6364 53.9705 33.2827 53.8672 34.1529C53.8165 35.1936 54.0109 36.2378 54.2781 37.2409C54.5767 38.2049 54.8134 39.2012 55.4022 40.041C55.7413 40.4884 56.0828 40.9294 56.5245 41.2836C57.5103 42.0743 58.8761 42.3573 59.7887 43.2232L57.9993 41.7918Z" fill="#1A6144"/>
<path d="M29.7412 49.9882C29.1771 49.1705 28.8522 48.2527 28.5921 47.303C28.4289 46.5384 28.2014 45.7517 28.38 44.9736C28.6 44.3552 29.066 43.8605 29.4631 43.348C29.7391 43.0314 29.9246 42.6533 30.1403 42.2965L28.1606 41.1499C27.9541 41.5021 27.769 41.8689 27.5002 42.1803C27.0887 42.7228 26.6029 43.2393 26.3692 43.8883C26.2978 44.1729 26.2552 44.2659 26.2601 44.5679C26.2694 45.1635 26.4554 45.7513 26.5572 46.3328C26.8136 47.297 27.0988 48.2125 27.6399 49.0614L29.7412 49.9882Z" fill="#1A6144"/>
</svg>
