<svg width="26" height="26" viewBox="0 0 26 26" fill="none" xmlns="http://www.w3.org/2000/svg">
<g clip-path="url(#clip0_236_2467)">
<path d="M20.3125 3.25C19.2351 3.25 18.2017 3.67801 17.4399 4.43988C16.678 5.20175 16.25 6.23506 16.25 7.3125C16.25 7.52799 16.1644 7.73465 16.012 7.88703C15.8597 8.0394 15.653 8.125 15.4375 8.125C15.222 8.125 15.0153 8.0394 14.863 7.88703C14.7106 7.73465 14.625 7.52799 14.625 7.3125C14.625 6.18762 14.9586 5.088 15.5835 4.1527C16.2085 3.21739 17.0967 2.48841 18.136 2.05794C19.1752 1.62746 20.3188 1.51483 21.4221 1.73429C22.5253 1.95374 23.5388 2.49542 24.3342 3.29083C25.1296 4.08624 25.6713 5.09966 25.8907 6.20293C26.1102 7.30619 25.9975 8.44976 25.5671 9.48902C25.1366 10.5283 24.4076 11.4165 23.4723 12.0415C22.537 12.6664 21.4374 13 20.3125 13H0.8125C0.597012 13 0.390349 12.9144 0.237976 12.762C0.0856024 12.6097 0 12.403 0 12.1875C0 11.972 0.0856024 11.7654 0.237976 11.613C0.390349 11.4606 0.597012 11.375 0.8125 11.375H20.3125C21.3899 11.375 22.4233 10.947 23.1851 10.1851C23.947 9.42326 24.375 8.38994 24.375 7.3125C24.375 6.23506 23.947 5.20175 23.1851 4.43988C22.4233 3.67801 21.3899 3.25 20.3125 3.25ZM8.9375 4.875C8.50652 4.875 8.0932 5.04621 7.78845 5.35095C7.48371 5.6557 7.3125 6.06903 7.3125 6.5C7.3125 6.71549 7.2269 6.92215 7.07452 7.07453C6.92215 7.2269 6.71549 7.3125 6.5 7.3125C6.28451 7.3125 6.07785 7.2269 5.92548 7.07453C5.7731 6.92215 5.6875 6.71549 5.6875 6.5C5.6875 5.85721 5.87811 5.22886 6.23522 4.6944C6.59234 4.15994 7.09992 3.74338 7.69378 3.49739C8.28764 3.25141 8.94111 3.18705 9.57154 3.31245C10.202 3.43785 10.7811 3.74738 11.2356 4.20191C11.6901 4.65643 11.9997 5.23552 12.1251 5.86596C12.2505 6.4964 12.1861 7.14986 11.9401 7.74372C11.6941 8.33758 11.2776 8.84516 10.7431 9.20228C10.2086 9.55939 9.58029 9.75 8.9375 9.75H0.8125C0.597012 9.75 0.390349 9.6644 0.237976 9.51203C0.0856024 9.35965 0 9.15299 0 8.9375C0 8.72201 0.0856024 8.51535 0.237976 8.36298C0.390349 8.21061 0.597012 8.125 0.8125 8.125H8.9375C9.36848 8.125 9.7818 7.9538 10.0865 7.64905C10.3913 7.3443 10.5625 6.93098 10.5625 6.5C10.5625 6.06903 10.3913 5.6557 10.0865 5.35095C9.7818 5.04621 9.36848 4.875 8.9375 4.875ZM0 15.4375C0 15.222 0.0856024 15.0154 0.237976 14.863C0.390349 14.7106 0.597012 14.625 0.8125 14.625H17.1307C18.0949 14.625 19.0375 14.9109 19.8392 15.4466C20.6408 15.9823 21.2657 16.7436 21.6347 17.6344C22.0036 18.5252 22.1002 19.5054 21.9121 20.4511C21.724 21.3967 21.2597 22.2654 20.5779 22.9472C19.8961 23.6289 19.0275 24.0932 18.0818 24.2813C17.1362 24.4694 16.156 24.3729 15.2652 24.0039C14.3744 23.6349 13.613 23.0101 13.0773 22.2084C12.5417 21.4067 12.2557 20.4642 12.2557 19.5C12.2557 19.2845 12.3414 19.0779 12.4937 18.9255C12.6461 18.7731 12.8528 18.6875 13.0682 18.6875C13.2837 18.6875 13.4904 18.7731 13.6428 18.9255C13.7951 19.0779 13.8807 19.2845 13.8807 19.5C13.8807 20.1428 14.0714 20.7711 14.4285 21.3056C14.7856 21.8401 15.2932 22.2566 15.887 22.5026C16.4809 22.7486 17.1344 22.813 17.7648 22.6876C18.3952 22.5622 18.9743 22.2526 19.4288 21.7981C19.8834 21.3436 20.1929 20.7645 20.3183 20.134C20.4437 19.5036 20.3793 18.8501 20.1334 18.2563C19.8874 17.6624 19.4708 17.1548 18.9364 16.7977C18.4019 16.4406 17.7735 16.25 17.1307 16.25H0.8125C0.597012 16.25 0.390349 16.1644 0.237976 16.012C0.0856024 15.8597 0 15.653 0 15.4375Z" fill="#1A6144"/>
</g>
<defs>
<clipPath id="clip0_236_2467">
<rect width="26" height="26" fill="white"/>
</clipPath>
</defs>
</svg>
