<svg width="22" height="21" viewBox="0 0 22 21" fill="none" xmlns="http://www.w3.org/2000/svg">
<path d="M5.71048 15.4168C5.7962 15.4459 5.87544 15.4918 5.94368 15.5521C6.01192 15.6123 6.06782 15.6856 6.10818 15.7678C6.14854 15.85 6.17256 15.9395 6.17889 16.0311C6.18521 16.1228 6.17371 16.2148 6.14503 16.3019L5.45745 18.3993C5.43155 18.4896 5.388 18.5736 5.32941 18.6464C5.27083 18.7191 5.1984 18.7791 5.11648 18.8228C5.03455 18.8664 4.9448 18.8928 4.85261 18.9004C4.76042 18.9079 4.66767 18.8965 4.57993 18.8668C4.49218 18.837 4.41124 18.7896 4.34195 18.7273C4.27265 18.665 4.21643 18.5892 4.17664 18.5043C4.13686 18.4194 4.11432 18.3272 4.1104 18.2332C4.10647 18.1393 4.12122 18.0455 4.15378 17.9574L4.84137 15.8601C4.89882 15.6841 5.02266 15.5386 5.18565 15.4555C5.34864 15.3723 5.53742 15.3584 5.71048 15.4168ZM9.836 15.4168C9.92172 15.4459 10.001 15.4918 10.0692 15.5521C10.1374 15.6123 10.1933 15.6856 10.2337 15.7678C10.2741 15.85 10.2981 15.9395 10.3044 16.0311C10.3107 16.1228 10.2992 16.2148 10.2706 16.3019L8.89538 20.4966C8.86948 20.5869 8.82593 20.671 8.76735 20.7437C8.70876 20.8165 8.63634 20.8765 8.55441 20.9201C8.47248 20.9638 8.38274 20.9902 8.29054 20.9977C8.19835 21.0053 8.10561 20.9939 8.01786 20.9641C7.93012 20.9344 7.84917 20.8869 7.77988 20.8247C7.71058 20.7624 7.65436 20.6865 7.61457 20.6016C7.57479 20.5167 7.55226 20.4245 7.54833 20.3306C7.5444 20.2366 7.55916 20.1428 7.59171 20.0548L8.96689 15.8601C9.02434 15.6841 9.14818 15.5386 9.31117 15.4555C9.47415 15.3723 9.66294 15.3584 9.836 15.4168ZM13.9615 15.4168C14.0472 15.4459 14.1265 15.4918 14.1947 15.5521C14.263 15.6123 14.3189 15.6856 14.3592 15.7678C14.3996 15.85 14.4236 15.9395 14.4299 16.0311C14.4362 16.1228 14.4247 16.2148 14.3961 16.3019L13.7085 18.3993C13.6826 18.4896 13.639 18.5736 13.5805 18.6464C13.5219 18.7191 13.4494 18.7791 13.3675 18.8228C13.2856 18.8664 13.1958 18.8928 13.1037 18.9004C13.0115 18.9079 12.9187 18.8965 12.831 18.8668C12.7432 18.837 12.6623 18.7896 12.593 18.7273C12.5237 18.665 12.4675 18.5892 12.4277 18.5043C12.3879 18.4194 12.3654 18.3272 12.3614 18.2332C12.3575 18.1393 12.3723 18.0455 12.4048 17.9574L13.0924 15.8601C13.1499 15.6841 13.2737 15.5386 13.4367 15.4555C13.5997 15.3723 13.7885 15.3584 13.9615 15.4168ZM18.087 15.4168C18.1728 15.4459 18.252 15.4918 18.3202 15.5521C18.3885 15.6123 18.4444 15.6856 18.4847 15.7678C18.5251 15.85 18.5491 15.9395 18.5554 16.0311C18.5618 16.1228 18.5503 16.2148 18.5216 16.3019L17.1464 20.4966C17.1205 20.5869 17.077 20.671 17.0184 20.7437C16.9598 20.8165 16.8874 20.8765 16.8054 20.9201C16.7235 20.9638 16.6338 20.9902 16.5416 20.9977C16.4494 21.0053 16.3566 20.9939 16.2689 20.9641C16.1812 20.9344 16.1002 20.8869 16.0309 20.8247C15.9616 20.7624 15.9054 20.6865 15.8656 20.6016C15.8258 20.5167 15.8033 20.4245 15.7994 20.3306C15.7954 20.2366 15.8102 20.1428 15.8428 20.0548L17.2179 15.8601C17.2754 15.6841 17.3992 15.5386 17.5622 15.4555C17.7252 15.3723 17.914 15.3584 18.087 15.4168ZM18.4267 5.63196C18.1411 4.16823 17.4025 2.83578 16.3188 1.82942C15.2352 0.823068 13.8633 0.195593 12.4038 0.0387423C10.9443 -0.118108 9.47369 0.203893 8.20705 0.957666C6.94041 1.71144 5.94415 2.85745 5.36393 4.22813C4.71325 4.15192 4.05412 4.21154 3.42689 4.40334C2.79966 4.59515 2.21753 4.9151 1.71615 5.34361C1.21476 5.77213 0.804667 6.30018 0.510977 6.89545C0.217287 7.49072 0.0461787 8.14067 0.00812879 8.80551C-0.0299211 9.47036 0.0658879 10.1361 0.28969 10.762C0.513492 11.3879 0.860577 11.9607 1.3097 12.4455C1.75881 12.9302 2.30051 13.3167 2.90163 13.5812C3.50275 13.8457 4.15063 13.9826 4.80561 13.9836H17.8698C18.9164 13.9849 19.9244 13.5815 20.6895 12.8554C21.4547 12.1292 21.9197 11.1345 21.9905 10.0727C22.0613 9.01092 21.7326 7.96148 21.0709 7.13694C20.4092 6.3124 19.4639 5.77442 18.4267 5.63196Z" fill="#1A6144"/>
</svg>
