<svg width="26" height="26" viewBox="0 0 26 26" fill="none" xmlns="http://www.w3.org/2000/svg">
<g clip-path="url(#clip0_244_2724)">
<path d="M19.5 13C19.5 14.7239 18.8152 16.3772 17.5962 17.5962C16.3772 18.8152 14.7239 19.5 13 19.5C11.2761 19.5 9.62279 18.8152 8.40381 17.5962C7.18482 16.3772 6.5 14.7239 6.5 13C6.5 11.2761 7.18482 9.62279 8.40381 8.40381C9.62279 7.18482 11.2761 6.5 13 6.5C14.7239 6.5 16.3772 7.18482 17.5962 8.40381C18.8152 9.62279 19.5 11.2761 19.5 13ZM13 0C13.2155 0 13.4222 0.0856024 13.5745 0.237976C13.7269 0.390349 13.8125 0.597012 13.8125 0.8125V4.0625C13.8125 4.27799 13.7269 4.48465 13.5745 4.63702C13.4222 4.7894 13.2155 4.875 13 4.875C12.7845 4.875 12.5778 4.7894 12.4255 4.63702C12.2731 4.48465 12.1875 4.27799 12.1875 4.0625V0.8125C12.1875 0.597012 12.2731 0.390349 12.4255 0.237976C12.5778 0.0856024 12.7845 0 13 0ZM13 21.125C13.2155 21.125 13.4222 21.2106 13.5745 21.363C13.7269 21.5153 13.8125 21.722 13.8125 21.9375V25.1875C13.8125 25.403 13.7269 25.6097 13.5745 25.762C13.4222 25.9144 13.2155 26 13 26C12.7845 26 12.5778 25.9144 12.4255 25.762C12.2731 25.6097 12.1875 25.403 12.1875 25.1875V21.9375C12.1875 21.722 12.2731 21.5153 12.4255 21.363C12.5778 21.2106 12.7845 21.125 13 21.125ZM26 13C26 13.2155 25.9144 13.4222 25.762 13.5745C25.6097 13.7269 25.403 13.8125 25.1875 13.8125H21.9375C21.722 13.8125 21.5153 13.7269 21.363 13.5745C21.2106 13.4222 21.125 13.2155 21.125 13C21.125 12.7845 21.2106 12.5778 21.363 12.4255C21.5153 12.2731 21.722 12.1875 21.9375 12.1875H25.1875C25.403 12.1875 25.6097 12.2731 25.762 12.4255C25.9144 12.5778 26 12.7845 26 13ZM4.875 13C4.875 13.2155 4.7894 13.4222 4.63702 13.5745C4.48465 13.7269 4.27799 13.8125 4.0625 13.8125H0.8125C0.597012 13.8125 0.390349 13.7269 0.237976 13.5745C0.0856024 13.4222 0 13.2155 0 13C0 12.7845 0.0856024 12.5778 0.237976 12.4255C0.390349 12.2731 0.597012 12.1875 0.8125 12.1875H4.0625C4.27799 12.1875 4.48465 12.2731 4.63702 12.4255C4.7894 12.5778 4.875 12.7845 4.875 13ZM22.1926 3.80737C22.3449 3.95974 22.4305 4.16637 22.4305 4.38181C22.4305 4.59726 22.3449 4.80388 22.1926 4.95625L19.8949 7.25563C19.8193 7.33106 19.7297 7.39088 19.631 7.43166C19.5323 7.47245 19.4266 7.4934 19.3199 7.49333C19.1043 7.49317 18.8975 7.40738 18.7452 7.25481C18.6698 7.17927 18.6099 7.08961 18.5691 6.99095C18.5284 6.89229 18.5074 6.78656 18.5075 6.6798C18.5076 6.46419 18.5934 6.25748 18.746 6.10512L21.0437 3.80737C21.1961 3.65505 21.4027 3.56949 21.6182 3.56949C21.8336 3.56949 22.0403 3.65505 22.1926 3.80737ZM7.254 18.746C7.40632 18.8984 7.49189 19.105 7.49189 19.3204C7.49189 19.5359 7.40632 19.7425 7.254 19.8949L4.95625 22.1926C4.80301 22.3406 4.59777 22.4225 4.38474 22.4207C4.1717 22.4188 3.96792 22.3334 3.81727 22.1827C3.66663 22.0321 3.58118 21.8283 3.57933 21.6153C3.57748 21.4022 3.65937 21.197 3.80737 21.0437L6.10512 18.746C6.25749 18.5937 6.46412 18.5081 6.67956 18.5081C6.89501 18.5081 7.10163 18.5937 7.254 18.746ZM22.1926 22.1926C22.0403 22.3449 21.8336 22.4305 21.6182 22.4305C21.4027 22.4305 21.1961 22.3449 21.0437 22.1926L18.746 19.8949C18.598 19.7416 18.5161 19.5364 18.518 19.3234C18.5198 19.1103 18.6053 18.9065 18.7559 18.7559C18.9065 18.6053 19.1103 18.5198 19.3234 18.518C19.5364 18.5161 19.7416 18.598 19.8949 18.746L22.1926 21.0437C22.3449 21.1961 22.4305 21.4027 22.4305 21.6182C22.4305 21.8336 22.3449 22.0403 22.1926 22.1926ZM7.254 7.25563C7.10163 7.40795 6.89501 7.49351 6.67956 7.49351C6.46412 7.49351 6.25749 7.40795 6.10512 7.25563L3.80737 4.95625C3.72977 4.8813 3.66788 4.79164 3.62529 4.69252C3.58271 4.59339 3.5603 4.48677 3.55936 4.37889C3.55842 4.27101 3.57898 4.16402 3.61983 4.06416C3.66069 3.96431 3.72102 3.87359 3.7973 3.7973C3.87359 3.72102 3.96431 3.66069 4.06416 3.61983C4.16402 3.57898 4.27101 3.55842 4.37889 3.55936C4.48677 3.5603 4.59339 3.58271 4.69252 3.62529C4.79164 3.66788 4.8813 3.72977 4.95625 3.80737L7.254 6.10512C7.32967 6.1806 7.3897 6.27026 7.43066 6.36897C7.47162 6.46768 7.4927 6.5735 7.4927 6.68038C7.4927 6.78725 7.47162 6.89307 7.43066 6.99178C7.3897 7.09049 7.32967 7.18015 7.254 7.25563Z" fill="#1A6144"/>
</g>
<defs>
<clipPath id="clip0_244_2724">
<rect width="26" height="26" fill="white"/>
</clipPath>
</defs>
</svg>
